$MeshFormat
2.2 0 8
$EndMeshFormat
$PhysicalNames
5
1 1 "bottom"
1 2 "right"
1 3 "top"
1 4 "left"
2 5 "fluid"
$EndPhysicalNames
$Nodes
171
1 0 0 0
2 1 0 0
3 1 1 0
4 0 1 0
5 0.05946310158232471 0 0
6 0.1224620553477261 0 0
7 0.1892071163886044 0 0
8 0.2599210716692753 0 0
9 0.3348398714146312 0 0
10 0.4142135804472613 0 0
11 0.4983070963540464 0 0
12 0.5874010515891284 0 0
13 0.6817928450361218 0 0
14 0.7817974427808172 0 0
15 0.8877486311049043 0 0
16 1 0.112251368894515 0
17 1 0.2182025572179916 0
18 1 0.3182071549621309 0
19 1 0.4125989484086359 0
20 1 0.5016929036433077 0
21 1 0.5857864195506244 0
22 1 0.6651601285837355 0
23 1 0.7400789283295245 0
24 1 0.8107928836105862 0
25 1 0.8775379446518116 0
26 1 0.9405368984174426 0
27 0.9405368984172943 1 0
28 0.8775379446514977 1 0
29 0.8107928836108219 1 0
30 0.7400789283304079 1 0
31 0.6651601285853415 1 0
32 0.5857864195530365 1 0
33 0.501692903646615 1 0
34 0.4125989484114402 1 0
35 0.3182071549643298 1 0
36 0.218202557219502 1 0
37 0.1122513688952649 1 0
38 0 0.8877486311048496 0
39 0 0.7817974427817209 0
40 0 0.6817928450380033 0
41 0 0.5874010515918739 0
42 0 0.4983070963575255 0
43 0 0.4142135804500497 0
44 0 0.3348398714167945 0
45 0 0.2599210716708759 0
46 0 0.1892071163896972 0
47 0 0.1224620553483668 0
48 0 0.05946310158264156 0
49 0.4971867104616328 0.9169232707476819 0
50 0.9238357869140498 0.6587492297824969 0
51 0.5959154318656562 0.08895278494092634 0
52 0.08139112265796325 0.4184099711432703 0
53 0.1229150224806521 0.6821406920525575 0
54 0.3410547760391276 0.07573464108972078 0
55 0.07366846140690662 0.2637576724987985 0
56 0.9052043596754324 0.3061262404990739 0
57 0.7381879862071998 0.9280801924590082 0
58 0.1957523776172972 0.0671603000724359 0
59 0.9329125842262549 0.8049766505644796 0
60 0.2111389870722883 0.9024831910903341 0
61 0.8945799134215188 0.1043046436506835 0
62 0.1072459805820649 0.896001032540356 0
63 0.7915648137600018 0.09855961518876491 0
64 0.9104550457462612 0.4016953486060393 0
65 0.3110732153275288 0.9086430386942067 0
66 0.09313238501822736 0.5849531550676371 0
67 0.5054407355847068 0.08457583223752059 0
68 0.9151686943116621 0.49260226194772 0
69 0.5831417281045135 0.9200607824702333 0
70 0.9357932560785891 0.8723351659927763 0
71 0.06305054791298199 0.06203361448020085 0
72 0.06973790231785114 0.1930586659952133 0
73 0.8078894943361077 0.9317845561396755 0
74 0.9376738338024313 0.9370261428884741 0
75 0.5877512423649558 0.8391619906325301 0
76 0.5093389754162108 0.173067925356137 0
77 0.8301608548737772 0.4869577910227131 0
78 0.1765026093085889 0.5771749399078089 0
79 0.3127106885323319 0.8196476414239036 0
80 0.1399986329701496 0.1966243016901974 0
81 0.8079098077701207 0.8636998572642338 0
82 0.8003719445174651 0.1977396331158354 0
83 0.2142363585879274 0.807404543665356 0
84 0.9000750445244057 0.2066023764854629 0
85 0.1283657992687483 0.06429213981666079 0
86 0.6921459296457637 0.0938943956593523 0
87 0.1099524850812257 0.7936829998948074 0
88 0.4067148340098151 0.9134134605066521 0
89 0.8204408050532446 0.3939643452506659 0
90 0.420816537282412 0.08045323599741257 0
91 0.08553973250214272 0.5005212368805914 0
92 0.9194104165418198 0.5780668236740366 0
93 0.6636553497534737 0.9238305154950697 0
94 0.266878014785096 0.07139537136148504 0
95 0.07771602355935509 0.3393165501159845 0
96 0.9285308549227194 0.733685272875384 0
97 0.8739218114310724 0.9344421598429371 0
98 0.06643046261915035 0.1264579913250621 0
99 0.8717297659562608 0.8674020598912445 0
100 0.163110058669038 0.4197832934451251 0
101 0.7457160567814258 0.4878789868950821 0
102 0.7012918701935598 0.1916155119693524 0
103 0.4083302362996075 0.8281198949119494 0
104 0.6702460637435879 0.8476505604455187 0
105 0.2730932171531833 0.1435079494820193 0
106 0.4238237630112774 0.1626581228161072 0
107 0.8470978883601655 0.6556177449710101 0
108 0.3238741504097822 0.7353638450718349 0
109 0.8101544091602959 0.2972074922993369 0
110 0.6031489299913231 0.1848986519713941 0
111 0.4998916421177685 0.8340677384975156 0
112 0.1855743963007505 0.6326171025052563 0
113 0.1697346452129881 0.4996908808912051 0
114 0.8384585127509755 0.5742933697412521 0
115 0.1475142301800277 0.2669705338063924 0
116 0.7424555504962049 0.8579082669909377 0
117 0.1340159930703704 0.1300668272993599 0
118 0.8669215989685318 0.7992834935064334 0
119 0.6983295978853861 0.7626643659112765 0
120 0.4215138456080165 0.2467561108208855 0
121 0.6048072127045436 0.3004292957675108 0
122 0.7569431125803333 0.5762601374573673 0
123 0.2460394169268211 0.41735153259133 0
124 0.8020347008970585 0.7988949696429581 0
125 0.5066947097593292 0.7518215195629337 0
126 0.7303644544308773 0.3941961831217469 0
127 0.7136482218351314 0.294814960997393 0
128 0.4168554345437626 0.7450216879959571 0
129 0.3458720576452732 0.1532761044165915 0
130 0.2536439437054104 0.4980481608232157 0
131 0.1555264168810163 0.3412151444120406 0
132 0.2032124119084293 0.1356214486411144 0
133 0.8568804878739082 0.7304637962131045 0
134 0.2096223924083399 0.2026307573754766 0
135 0.2565314727944012 0.5738734735721266 0
136 0.2297208032160588 0.7201128404177921 0
137 0.6749471444769752 0.5826640324362512 0
138 0.3386922753686985 0.4983363500276019 0
139 0.2330953102784579 0.3379041982736062 0
140 0.4249037185910927 0.6638020155853473 0
141 0.3436319499373844 0.2309420783388672 0
142 0.7679570869977975 0.6596613429480073 0
143 0.5062594044930134 0.2631582732900955 0
144 0.6635593749969478 0.4958866491578121 0
145 0.5960022409935336 0.7564219822304982 0
146 0.2185418496411732 0.2677576150125884 0
147 0.3350562554869041 0.6555038928154655 0
148 0.7499676123882344 0.8085033157044498 0
149 0.2756034166791784 0.2137925549542231 0
150 0.2482549227077472 0.6448632439638716 0
151 0.6457870149570082 0.405850223454801 0
152 0.7835702128139268 0.7356645984656071 0
153 0.5714655916787893 0.4201908064964939 0
154 0.4170308331784662 0.3324835265191151 0
155 0.6842811142008267 0.6679871564406534 0
156 0.331457232823291 0.4147037298743289 0
157 0.4266385621699036 0.583125118537744 0
158 0.3396160293716793 0.577510229420906 0
159 0.4985007981306344 0.3447431838743623 0
160 0.268797767686564 0.2633992444905537 0
161 0.5841169734527041 0.5032461679988702 0
162 0.5108351090240698 0.6697158043839544 0
163 0.5560709215978958 0.3579055457299316 0
164 0.4228780126977781 0.5017377285560338 0
165 0.3182588419411448 0.3152842729256518 0
166 0.4174592808544154 0.4179126908333086 0
167 0.5046544154590017 0.5046757576015997 0
168 0.4975851682350567 0.4229268407819569 0
169 0.5972234938261434 0.6716315066708701 0
170 0.5093530408513083 0.5868709091129063 0
171 0.5917558401186241 0.5864327702573003 0
$EndNodes
$Elements
194
1 1 2 1 1 1 5
2 1 2 1 1 5 6
3 1 2 1 1 6 7
4 1 2 1 1 7 8
5 1 2 1 1 8 9
6 1 2 1 1 9 10
7 1 2 1 1 10 11
8 1 2 1 1 11 12
9 1 2 1 1 12 13
10 1 2 1 1 13 14
11 1 2 1 1 14 15
12 1 2 1 1 15 2
13 1 2 2 2 2 16
14 1 2 2 2 16 17
15 1 2 2 2 17 18
16 1 2 2 2 18 19
17 1 2 2 2 19 20
18 1 2 2 2 20 21
19 1 2 2 2 21 22
20 1 2 2 2 22 23
21 1 2 2 2 23 24
22 1 2 2 2 24 25
23 1 2 2 2 25 26
24 1 2 2 2 26 3
25 1 2 3 3 3 27
26 1 2 3 3 27 28
27 1 2 3 3 28 29
28 1 2 3 3 29 30
29 1 2 3 3 30 31
30 1 2 3 3 31 32
31 1 2 3 3 32 33
32 1 2 3 3 33 34
33 1 2 3 3 34 35
34 1 2 3 3 35 36
35 1 2 3 3 36 37
36 1 2 3 3 37 4
37 1 2 4 4 4 38
38 1 2 4 4 38 39
39 1 2 4 4 39 40
40 1 2 4 4 40 41
41 1 2 4 4 41 42
42 1 2 4 4 42 43
43 1 2 4 4 43 44
44 1 2 4 4 44 45
45 1 2 4 4 45 46
46 1 2 4 4 46 47
47 1 2 4 4 47 48
48 1 2 4 4 48 1
49 3 2 5 1 89 126 127 109
50 3 2 5 1 151 126 101 144
51 3 2 5 1 169 171 137 155
52 3 2 5 1 126 151 121 127
53 3 2 5 1 151 144 161 153
54 3 2 5 1 168 153 161 167
55 3 2 5 1 162 125 128 140
56 3 2 5 1 110 102 127 121
57 3 2 5 1 111 103 128 125
58 3 2 5 1 153 163 121 151
59 3 2 5 1 60 62 87 83
60 3 2 5 1 61 16 17 84
61 3 2 5 1 53 136 83 87
62 3 2 5 1 165 141 120 154
63 3 2 5 1 84 82 63 61
64 3 2 5 1 138 158 135 130
65 3 2 5 1 82 84 56 109
66 3 2 5 1 157 158 138 164
67 3 2 5 1 83 79 65 60
68 3 2 5 1 126 89 77 101
69 3 2 5 1 16 61 15 2
70 3 2 5 1 38 62 37 4
71 3 2 5 1 62 60 36 37
72 3 2 5 1 109 56 64 89
73 3 2 5 1 154 159 168 166
74 3 2 5 1 153 168 159 163
75 3 2 5 1 86 63 82 102
76 3 2 5 1 71 98 47 48
77 3 2 5 1 89 64 68 77
78 3 2 5 1 113 91 52 100
79 3 2 5 1 135 150 112 78
80 3 2 5 1 43 52 91 42
81 3 2 5 1 147 150 135 158
82 3 2 5 1 63 14 15 61
83 3 2 5 1 87 62 38 39
84 3 2 5 1 64 56 18 19
85 3 2 5 1 65 35 36 60
86 3 2 5 1 45 55 95 44
87 3 2 5 1 86 13 14 63
88 3 2 5 1 24 59 96 23
89 3 2 5 1 66 53 40 41
90 3 2 5 1 67 11 12 51
91 3 2 5 1 119 155 142 152
92 3 2 5 1 88 65 79 103
93 3 2 5 1 79 83 136 108
94 3 2 5 1 88 34 35 65
95 3 2 5 1 68 64 19 20
96 3 2 5 1 22 50 92 21
97 3 2 5 1 114 92 50 107
98 3 2 5 1 102 110 51 86
99 3 2 5 1 90 10 11 67
100 3 2 5 1 147 108 136 150
101 3 2 5 1 109 127 102 82
102 3 2 5 1 69 32 33 49
103 3 2 5 1 30 31 93 57
104 3 2 5 1 90 67 76 106
105 3 2 5 1 7 8 94 58
106 3 2 5 1 155 119 145 169
107 3 2 5 1 146 160 165 139
108 3 2 5 1 93 31 32 69
109 3 2 5 1 41 42 91 66
110 3 2 5 1 34 88 49 33
111 3 2 5 1 100 123 130 113
112 3 2 5 1 13 86 51 12
113 3 2 5 1 10 90 54 9
114 3 2 5 1 39 40 53 87
115 3 2 5 1 17 18 56 84
116 3 2 5 1 93 69 75 104
117 3 2 5 1 103 111 49 88
118 3 2 5 1 94 8 9 54
119 3 2 5 1 162 140 157 170
120 3 2 5 1 20 21 92 68
121 3 2 5 1 140 128 108 147
122 3 2 5 1 72 55 45 46
123 3 2 5 1 135 78 113 130
124 3 2 5 1 85 6 7 58
125 3 2 5 1 129 106 120 141
126 3 2 5 1 70 59 24 25
127 3 2 5 1 73 29 30 57
128 3 2 5 1 144 137 171 161
129 3 2 5 1 142 155 137 122
130 3 2 5 1 121 143 76 110
131 3 2 5 1 158 157 140 147
132 3 2 5 1 43 44 95 52
133 3 2 5 1 125 162 169 145
134 3 2 5 1 78 66 91 113
135 3 2 5 1 77 68 92 114
136 3 2 5 1 22 23 96 50
137 3 2 5 1 66 78 112 53
138 3 2 5 1 46 47 98 72
139 3 2 5 1 159 154 120 143
140 3 2 5 1 104 75 145 119
141 3 2 5 1 143 121 163 159
142 3 2 5 1 131 139 123 100
143 3 2 5 1 171 170 167 161
144 3 2 5 1 125 145 75 111
145 3 2 5 1 107 142 122 114
146 3 2 5 1 131 95 55 115
147 3 2 5 1 144 101 122 137
148 3 2 5 1 154 166 156 165
149 3 2 5 1 67 51 110 76
150 3 2 5 1 106 129 54 90
151 3 2 5 1 143 120 106 76
152 3 2 5 1 69 49 111 75
153 3 2 5 1 94 54 129 105
154 3 2 5 1 101 77 114 122
155 3 2 5 1 115 55 72 80
156 3 2 5 1 139 165 156 123
157 3 2 5 1 80 134 146 115
158 3 2 5 1 164 138 156 166
159 3 2 5 1 48 1 5 71
160 3 2 5 1 131 100 52 95
161 3 2 5 1 80 72 98 117
162 3 2 5 1 73 57 116 81
163 3 2 5 1 141 149 105 129
164 3 2 5 1 133 107 50 96
165 3 2 5 1 27 28 97 74
166 3 2 5 1 27 74 26 3
167 3 2 5 1 160 146 134 149
168 3 2 5 1 133 96 59 118
169 3 2 5 1 99 118 59 70
170 3 2 5 1 104 116 57 93
171 3 2 5 1 148 124 81 116
172 3 2 5 1 138 130 123 156
173 3 2 5 1 29 73 97 28
174 3 2 5 1 139 131 115 146
175 3 2 5 1 167 164 166 168
176 3 2 5 1 119 152 124 148
177 3 2 5 1 25 26 74 70
178 3 2 5 1 53 112 150 136
179 3 2 5 1 105 132 58 94
180 3 2 5 1 119 148 116 104
181 3 2 5 1 85 58 132 117
182 3 2 5 1 108 128 103 79
183 3 2 5 1 164 167 170 157
184 3 2 5 1 124 118 99 81
185 3 2 5 1 99 70 74 97
186 3 2 5 1 134 80 117 132
187 3 2 5 1 6 85 71 5
188 3 2 5 1 133 152 142 107
189 3 2 5 1 81 99 97 73
190 3 2 5 1 71 85 117 98
191 3 2 5 1 118 124 152 133
192 3 2 5 1 149 134 132 105
193 3 2 5 1 165 160 149 141
194 3 2 5 1 170 171 169 162
$EndElements
