$MeshFormat
2.2 0 8
$EndMeshFormat
$PhysicalNames
5
1 1 "bottom"
1 2 "right"
1 3 "top"
1 4 "left"
2 5 "fluid"
$EndPhysicalNames
$Nodes
610
1 0 0 0
2 1 0 0
3 1 1 0
4 0 1 0
5 0.02930223724444659 0 0
6 0.05946310126113711 0 0
7 0.09050773816251097 0 0
8 0.1224620546671592 0 0
9 0.1553527025812653 0 0
10 0.1892071153071359 0 0
11 0.2240535483697326 0 0
12 0.2599210556561166 0 0
13 0.2968395579081241 0 0
14 0.3348398602918938 0 0
15 0.3739536525827225 0 0
16 0.414213568217851 0 0
17 0.4556531886051167 0 0
18 0.4983070793931315 0 0
19 0.5422108287547417 0 0
20 0.5874010535138113 0 0
21 0.6339154683243655 0 0
22 0.6817928465657874 0 0
23 0.7310731351330252 0 0
24 0.7817974438612864 0 0
25 0.8340080897132706 0 0
26 0.8877486316772611 0 0
27 0.9430638970377546 0 0
28 1 0.05693610296193366 0
29 1 0.1122513683221579 0
30 1 0.1659919102858426 0
31 1 0.2182025561375223 0
32 1 0.2689268648654963 0
33 1 0.3182071534324653 0
34 1 0.366084531673635 0
35 1 0.4125989464839529 0
36 1 0.4577891712428013 0
37 1 0.5016929206042227 0
38 1 0.5443468113925104 0
39 1 0.5857864317800352 0
40 1 0.62604634741541 0
41 1 0.6651601397064727 0
42 1 0.7031604420904648 0
43 1 0.7400789443426835 0
44 1 0.7759464516292676 0
45 1 0.8107928846920547 0
46 1 0.8446472974181056 0
47 1 0.8775379453323784 0
48 1 0.9094922618371437 0
49 1 0.9405368987386302 0
50 1 0.9706977627554447 0
51 0.970697762755373 1 0
52 0.9405368987384818 1 0
53 0.9094922618369147 1 0
54 0.8775379453320644 1 0
55 0.8446472974180435 1 0
56 0.8107928846922902 1 0
57 0.775946451629818 1 0
58 0.7400789443435662 1 0
59 0.703160442091699 1 0
60 0.6651601397080782 1 0
61 0.6260463474174078 1 0
62 0.5857864317824464 1 0
63 0.5443468113953573 1 0
64 0.5016929206075302 1 0
65 0.45778917124588 1 0
66 0.4125989464867574 1 0
67 0.3660845316761469 1 0
68 0.3182071534346645 1 0
69 0.2689268648673627 1 0
70 0.2182025561390329 1 0
71 0.1659919102869759 1 0
72 0.1122513683229081 1 0
73 0.05693610296233254 1 0
74 0 0.9430638970377271 0
75 0 0.8877486316772066 0
76 0 0.8340080897136404 0
77 0 0.7817974438621902 0
78 0 0.7310731351344331 0
79 0 0.681792846567669 0
80 0 0.6339154683266925 0
81 0 0.587401053516557 0
82 0 0.5422108287578804 0
83 0 0.4983070793966107 0
84 0 0.4556531886082414 0
85 0 0.414213568220639 0
86 0 0.3739536525851905 0
87 0 0.3348398602940577 0
88 0 0.2968395579099989 0
89 0 0.2599210556577169 0
90 0 0.2240535483710728 0
91 0 0.1892071153082288 0
92 0 0.155352702582124 0
93 0 0.1224620546678 0
94 0 0.0905077381629863 0
95 0 0.05946310126145404 0
96 0 0.02930223724459624 0
97 0.50031962621996 0.9577385628995015 0
98 0.5441025851885124 0.04344108826598796 0
99 0.04096422692035014 0.4156629625226212 0
100 0.9600154902169679 0.6251886270370165 0
101 0.04546101166078415 0.6386789609728291 0
102 0.2973810470248826 0.03771463005129625 0
103 0.9555687054809442 0.409152718333322 0
104 0.7394140577877422 0.9634137301279129 0
105 0.7337386735841307 0.04760322236478314 0
106 0.03564985724503239 0.2231915999365747 0
107 0.3159830729905632 0.9540559331350182 0
108 0.9629782551269952 0.8122255929476088 0
109 0.156487170545949 0.03341762593082851 0
110 0.05159527864670353 0.8391442361837401 0
111 0.844915738620574 0.9659316125040528 0
112 0.9488585633387127 0.212474999740208 0
113 0.9757302663333893 0.878678020750981 0
114 0.03275417615711981 0.12282555277695 0
115 0.8902922760011769 0.05227539549174023 0
116 0.9092144521374763 0.9685530722369021 0
117 0.09199429995108571 0.0311528435927193 0
118 0.1639096251058976 0.9492047215984396 0
119 0.05493248271603118 0.9457289540659222 0
120 0.04348020867286415 0.545628455451753 0
121 0.9574509879650056 0.4996666161495471 0
122 0.4568076324967772 0.04156415111905849 0
123 0.5848845867321305 0.9596130255730897 0
124 0.9619552627191469 0.702820790878453 0
125 0.03916180680698261 0.3352970195291731 0
126 0.9448555182093881 0.05427267853176045 0
127 0.04789996631735687 0.7365892514088996 0
128 0.9526692964848803 0.3133329090638107 0
129 0.6361535735138536 0.04541410717245223 0
130 0.4105147131225452 0.9556627302193642 0
131 0.9459810694051864 0.1078150058400553 0
132 0.8368284983714859 0.05046651432960803 0
133 0.2165180621305201 0.9509430445774835 0
134 0.6643369591704431 0.9615279851612564 0
135 0.3746678185584923 0.03966203472779442 0
136 0.2245899870883168 0.03565724741056326 0
137 0.04265124645672377 0.5010238396575692 0
138 0.9582625940154511 0.5427608197855683 0
139 0.9685548833479283 0.9397214084668593 0
140 0.03009586709626236 0.02984612032679639 0
141 0.962862844326577 0.7399965849728727 0
142 0.03831305706634128 0.2966648922655133 0
143 0.7755225386103433 0.9642211885695015 0
144 0.03434749321500317 0.1887692892144217 0
145 0.03182757880502154 0.09110497730096834 0
146 0.9697936192697594 0.969962851205739 0
147 0.9163691302190149 0.5414721902417408 0
148 0.08517803270327641 0.5041956088860186 0
149 0.07794322070391307 0.2948010427574152 0
150 0.925354205071228 0.740706077600089 0
151 0.7758404219266242 0.9278606318091346 0
152 0.2186543759358336 0.9020104552336673 0
153 0.06396766415570401 0.09160763995691937 0
154 0.8394746482916007 0.1007017570777098 0
155 0.06081988710582881 0.03039919293465318 0
156 0.8924642425432214 0.1040819069714422 0
157 0.1097529335896029 0.9475460021371038 0
158 0.05345303772190431 0.891958200556229 0
159 0.9472790581654053 0.1604752277997866 0
160 0.7847857071344712 0.04891062265055943 0
161 0.267118435874014 0.9527858788035596 0
162 0.04962846627657656 0.7874498841453056 0
163 0.950811292189774 0.2633181998116101 0
164 0.0465584460188413 0.6871526685806872 0
165 0.9542831923740787 0.3617253860023236 0
166 0.6843732411539761 0.04644740365534212 0
167 0.3636108943123156 0.9548824716592037 0
168 0.04437774179957035 0.5917979532450411 0
169 0.9565851983595598 0.4549550197639706 0
170 0.5896811935078319 0.0443873008859185 0
171 0.4559282676450705 0.9567107980466711 0
172 0.4999293095063337 0.04251346463898299 0
173 0.5431493275445721 0.9586722531994972 0
174 0.4151706621641902 0.04063795772687201 0
175 0.6251458325032349 0.960541198215513 0
176 0.04182552372811248 0.4578647952601459 0
177 0.9590933113140132 0.584498326857523 0
178 0.3355081038644183 0.03873749170039653 0
179 0.7023179363808483 0.9624421739517681 0
180 0.9609329249106373 0.6645208883626833 0
181 0.0400895291763317 0.3749996622483032 0
182 0.9634070183886732 0.7762435596950568 0
183 0.03722280508302492 0.2590422392961719 0
184 0.2604609099106423 0.03674777217921304 0
185 0.8107550816110908 0.9648889814714717 0
186 0.1900498146658574 0.03458832166198446 0
187 0.8778193808240811 0.9671987386666707 0
188 0.9594051697817542 0.8535524009036843 0
189 0.9634010532764643 0.9052961495760604 0
190 0.03350174830735081 0.1554383918739855 0
191 0.1240091260491306 0.03226653504384627 0
192 0.03097832341640141 0.06025870309533522 0
193 0.9396821939853667 0.9694533909414842 0
194 0.5013160004111721 0.08506874511468886 0
195 0.4987717007335244 0.9155216088206241 0
196 0.1906905107603455 0.06922204169992485 0
197 0.6389040544105491 0.09059712645988793 0
198 0.9086062015118274 0.3576860131743813 0
199 0.09045655368429693 0.6440474366439591 0
200 0.06696676169692203 0.1865619307174525 0
201 0.6639854696817763 0.9226889334060018 0
202 0.2971032689489074 0.07614734628920385 0
203 0.9350218036860592 0.8851863665139595 0
204 0.09470925095191152 0.7421627728513635 0
205 0.9016370440633702 0.2576154882490219 0
206 0.1046014751428753 0.8430571159644897 0
207 0.4078298368477643 0.9109234636936809 0
208 0.08202076121879903 0.4172861193470971 0
209 0.9197303737905818 0.6247681864346444 0
210 0.3749095068669666 0.07968961955447847 0
211 0.07567549299450962 0.2549720646625885 0
212 0.9113704485923969 0.9384084994095574 0
213 0.1642980281695664 0.8977439613889561 0
214 0.8949372215942051 0.1555296202547554 0
215 0.7877513466342652 0.09762500965686839 0
216 0.2685225699386902 0.9071953395527473 0
217 0.9132205102455312 0.4525754991980658 0
218 0.1082276165867876 0.8948044181248884 0
219 0.6873695134725974 0.0926564568535212 0
220 0.3604089700885398 0.9097991605082492 0
221 0.08670824560043228 0.5499788434206232 0
222 0.9148058407673726 0.4976197460062069 0
223 0.5841467536185885 0.9190244850529855 0
224 0.08362392156421634 0.4603211322826843 0
225 0.5462435454305696 0.08683649623752734 0
226 0.4156725064797251 0.08151743239272376 0
227 0.9179719032816731 0.5836459506847747 0
228 0.9234432039973665 0.7030672871880658 0
229 0.07905838740330318 0.3351183806655457 0
230 0.7393790298765268 0.9262623429074318 0
231 0.8811990200672969 0.934089770446081 0
232 0.811902548537351 0.9285740968645586 0
233 0.9272031656592675 0.8121577701062724 0
234 0.06581262918171496 0.1227929075625025 0
235 0.2245829131234056 0.07169312727430997 0
236 0.1259853006683642 0.06465508274086547 0
237 0.0623220225399936 0.06109967974338797 0
238 0.9267780962885263 0.777266515593939 0
239 0.9396286651263446 0.9403023357645715 0
240 0.8720531199478238 0.4961560932874306 0
241 0.1275198991565873 0.5083738832400722 0
242 0.3749333641585482 0.1201244617472567 0
243 0.4065043262548916 0.866727471867854 0
244 0.1218709739474775 0.2431071294471151 0
245 0.6426648190442743 0.1356476868061995 0
246 0.8873224927082692 0.7418206740393679 0
247 0.1912988459253237 0.1025576737397272 0
248 0.8127341003210503 0.8916000830653784 0
249 0.2802867706671681 0.864295646080746 0
250 0.1656277820218992 0.8422038762036086 0
251 0.8980955999591388 0.2066288453348378 0
252 0.7371554899978733 0.09495291603978759 0
253 0.3147872470673368 0.9101430378112771 0
254 0.09894151185929477 0.792565732238988 0
255 0.9052294653598291 0.3079982618730667 0
256 0.09242075588485972 0.6925527900250724 0
257 0.08844205700980601 0.5967738308054674 0
258 0.9112013486039493 0.4058092807672646 0
259 0.592258643128974 0.08865129906647912 0
260 0.1231488525314657 0.4194594701355315 0
261 0.4539542742620563 0.9134718363896661 0
262 0.8765474805575347 0.5829874365875283 0
263 0.5419699773686354 0.9172721533395869 0
264 0.4578918027137905 0.08330817189198435 0
265 0.6246062609772666 0.9208016951221145 0
266 0.08046069509236239 0.3759120179000517 0
267 0.9215196398110673 0.6644050527966142 0
268 0.7766621089559953 0.890694808305175 0
269 0.7918266520138322 0.1461909999897503 0
270 0.8432571180030034 0.1507515649630569 0
271 0.3355488415730949 0.07799866866351736 0
272 0.9214408472815399 0.843563911541387 0
273 0.06640745522157983 0.1547774327613889 0
274 0.1195056616125661 0.2923719978278179 0
275 0.2600449280934688 0.07419410350444183 0
276 0.7020971361506334 0.924469795166263 0
277 0.1582812770626471 0.06689367749912022 0
278 0.8476597704177585 0.9299671557628824 0
279 0.07061560237563544 0.2184969528087054 0
280 0.09412567061977052 0.06258989859673628 0
281 0.9395127113731725 0.9192085875137447 0
282 0.893715316478962 0.814655523440908 0
283 0.09660250251999548 0.09361414179667518 0
284 0.9198006126238508 0.9115053124468253 0
285 0.6639356781009114 0.8833764734095256 0
286 0.1656663258568804 0.2514811047505078 0
287 0.8621694706057762 0.3554511818232556 0
288 0.1351410469039175 0.6494812946584814 0
289 0.09068650258481792 0.1834777255464116 0
290 0.8131061523808084 0.855651708420527 0
291 0.7414665882979992 0.1421888932586937 0
292 0.3143017755391532 0.876925963445396 0
293 0.4589099280540699 0.1251732577373805 0
294 0.1211078528126639 0.3768063084397257 0
295 0.5832471775212297 0.8781789548220371 0
296 0.2570256656492305 0.1132083592358265 0
297 0.3350590014312614 0.1178578573858546 0
298 0.8910675466104203 0.901675428283804 0
299 0.161190993054054 0.1002106076514081 0
300 0.79686622513854 0.1950026646838889 0
301 0.8979598375906013 0.837996797958963 0
302 0.8516364161589073 0.2518865758631758 0
303 0.1389216360957095 0.7457173521103134 0
304 0.2312665228435213 0.8536382566577154 0
305 0.6918196061226549 0.138750977460686 0
306 0.3528586874698291 0.858314397062043 0
307 0.5952458498694555 0.1328356465644513 0
308 0.4521730856535731 0.8705723317585697 0
309 0.8474415341274558 0.2009417256013988 0
310 0.129765877943063 0.5546396098887744 0
311 0.1425425952019336 0.7998773522937218 0
312 0.869809042835034 0.4508854764851595 0
313 0.1253541181568628 0.4635445368022735 0
314 0.8742033203507404 0.5400553552188178 0
315 0.5405449400970774 0.8757768281772434 0
316 0.4163172770140541 0.1226937389865886 0
317 0.7399097234547818 0.888555764065117 0
318 0.1197795259232615 0.3347306980538648 0
319 0.8845404951770578 0.7035696340896885 0
320 0.8790512876501667 0.6244382869923421 0
321 0.09911347551095236 0.1256977084541888 0
322 0.8899140152940682 0.7795799991627667 0
323 0.2221564934093357 0.1074878183405223 0
324 0.8540324856385406 0.8862964395936017 0
325 0.1020626821710217 0.2051198557850792 0
326 0.1294517117503611 0.09767541391623005 0
327 0.9071632446859185 0.8719211994933301 0
328 0.8291333274489684 0.4952972391308584 0
329 0.1698235226065564 0.5120358194755789 0
330 0.3749622377041039 0.1609401215342909 0
331 0.5821042857115646 0.8370416091011821 0
332 0.5991413636286114 0.176983473952295 0
333 0.4067227526378637 0.8255469985813266 0
334 0.8380392260414552 0.6242496286766367 0
335 0.1907687598645209 0.1269828549526094 0
336 0.8488890215963268 0.7424963058756352 0
337 0.800328751168023 0.2456106691132777 0
338 0.3093224699162596 0.8140454795471043 0
339 0.1614327835657859 0.3337809752254092 0
340 0.6966371436423071 0.1848565341236644 0
341 0.8560188763859182 0.3043998247772204 0
342 0.1763707239906633 0.78122469848049 0
343 0.1372054842614904 0.6974944608764426 0
344 0.8394560481328066 0.856409489660384 0
345 0.4967038522691778 0.873350943683861 0
346 0.1645035351974202 0.4217447548852692 0
347 0.8555315073545796 0.8267003871978406 0
348 0.1324084314139198 0.60172404263427 0
349 0.8667766067470731 0.4043316575714111 0
350 0.8347727956816401 0.5822047906290955 0
351 0.7464305893173535 0.1897957538873634 0
352 0.5032831313576568 0.1276744502067314 0
353 0.5489218613630124 0.1302130317304305 0
354 0.4171130569362798 0.1641176916651797 0
355 0.777366841761851 0.8533002994780627 0
356 0.8817174491425962 0.6644586213869877 0
357 0.6241272391856855 0.880687278774881 0
358 0.1018037454709972 0.1561015610537293 0
359 0.1619245020120448 0.2907187713749662 0
360 0.2954003859651547 0.1162013167656781 0
361 0.7023311183843446 0.8859808751027557 0
362 0.2109627961436041 0.1394400278057639 0
363 0.1327266721344012 0.1774942459631098 0
364 0.1455502402243136 0.2114560327019691 0
365 0.2496584108840572 0.8053320224746482 0
366 0.1336181337330392 0.1328515312308202 0
367 0.8811599827983932 0.8553958272576018 0
368 0.3747486132755106 0.2020630201133365 0
369 0.7967152755629847 0.6238677054225954 0
370 0.1951379988260545 0.2515655943389598 0
371 0.3085221830544003 0.7570751436705133 0
372 0.1808588741313681 0.6533342612403424 0
373 0.8229957849653496 0.4051379750629636 0
374 0.7983832009871676 0.3051037048668598 0
375 0.1793516161284424 0.747491896926827 0
376 0.1829791212380212 0.1706996802033576 0
377 0.8415873857914851 0.6645155959125522 0
378 0.7026334076751859 0.8470507961386115 0
379 0.6237275367773021 0.8401983834130138 0
380 0.7491243382003523 0.2381310516747926 0
381 0.6475669720464887 0.1807645747645737 0
382 0.3732990144529745 0.8234501362925273 0
383 0.5521666989538523 0.1735414524577602 0
384 0.1727852241369591 0.5579217586004172 0
385 0.8141250045663589 0.8191397933006865 0
386 0.4946268649026495 0.8312623514341558 0
387 0.5386389517750896 0.8340830266196559 0
388 0.826372684954026 0.4506443207026516 0
389 0.1671714071159565 0.4666030790157256 0
390 0.8318281039327107 0.5391296175279301 0
391 0.1624784757688205 0.3775836263035786 0
392 0.4608716280140457 0.1671880702714941 0
393 0.2459277062167356 0.1598856902448492 0
394 0.3344118176367959 0.1581596856227866 0
395 0.2106857139576427 0.2827655810263658 0
396 0.4502488535332979 0.8284202565825161 0
397 0.8519929248850787 0.7815740957739636 0
398 0.8452562530790851 0.7036968970412673 0
399 0.7402973697570727 0.8503050929104307 0
400 0.2037749583479641 0.7940405077473828 0
401 0.8165006729093822 0.3588266546212701 0
402 0.1672229513229131 0.1328334837561886 0
403 0.5365786722446173 0.7922262967368345 0
404 0.212211772563593 0.5139695972006055 0
405 0.7802083363619888 0.4068543161483647 0
406 0.6039303591311578 0.2210320408771875 0
407 0.242928880728284 0.2468231372180376 0
408 0.7396809034023193 0.8117872769362531 0
409 0.6998735674711751 0.2310439558168206 0
410 0.3329312820226157 0.1980953210718291 0
411 0.7892745258386794 0.5385780729960001 0
412 0.2041571031273985 0.3782285945195891 0
413 0.4476738862695984 0.7866883714312259 0
414 0.3623033494231176 0.7932885126482766 0
415 0.8134123072301702 0.7806254296972401 0
416 0.2620959355933956 0.7577822010739986 0
417 0.7703393548591843 0.3330365751269562 0
418 0.7459543188698035 0.2846751366199949 0
419 0.6229143699542198 0.7993084845275066 0
420 0.5061266301825412 0.1702988469418522 0
421 0.2064898764286602 0.4232650089705359 0
422 0.1770138728695105 0.6046902495144352 0
423 0.7927849690412967 0.5816239030661785 0
424 0.7768328443746927 0.8154265936156659 0
425 0.2047652129726497 0.3334610028514227 0
426 0.786208070216849 0.4948442395379031 0
427 0.809981015252612 0.7417091094150221 0
428 0.8011024888011886 0.6642054622029034 0
429 0.4185792980152387 0.2059048140680208 0
430 0.2151926384825565 0.1841850750717975 0
431 0.6636326507524567 0.8435392368528729 0
432 0.1814751265117582 0.7016336870675961 0
433 0.1739078434798615 0.2139462255386927 0
434 0.2936132139463729 0.1572450195920332 0
435 0.218655871310182 0.7518832619285983 0
436 0.6516470463989575 0.2256853644002784 0
437 0.7466267332237326 0.5379759699151623 0
438 0.3549243007740665 0.750510071533507 0
439 0.2489069642170184 0.4239876310139392 0
440 0.3283877762886215 0.2378658250465558 0
441 0.6079886373612884 0.264715052885 0
442 0.2205434518602183 0.6034105799432613 0
443 0.2257044123305968 0.7068198225065314 0
444 0.7550996974737844 0.6237177390740998 0
445 0.6629685280697062 0.8033709284404634 0
446 0.2932216472611763 0.1961047406695809 0
447 0.6540332230662513 0.2699481547112668 0
448 0.7396849192613473 0.325977486713556 0
449 0.4045348611758567 0.7866812740830008 0
450 0.5803303442639579 0.7955735241341249 0
451 0.5097621614223574 0.2129155821468203 0
452 0.4638666714299983 0.2093788090859294 0
453 0.215581212012821 0.5586025375865903 0
454 0.209319552988653 0.4685683749913333 0
455 0.6996595747701126 0.2760643700522864 0
456 0.3087079265302697 0.7132174687243228 0
457 0.2464914986416433 0.3356247908042327 0
458 0.255560563624826 0.29714089800646 0
459 0.3736756810887978 0.2439734642081969 0
460 0.7833382600634754 0.45074665984572 0
461 0.5566808208393511 0.2168171956935105 0
462 0.7014897815078651 0.8075955769554543 0
463 0.4919981060008254 0.7892480300762411 0
464 0.8056422633833771 0.703138004078771 0
465 0.2565308159696442 0.2017018927223612 0
466 0.7748309896092402 0.7773476505373071 0
467 0.2157530373114684 0.2192960218524733 0
468 0.775757037571873 0.3643233118630284 0
469 0.5342397310110395 0.7501518264714937 0
470 0.699625367026609 0.7684249230407679 0
471 0.3998508765181133 0.74552432128193 0
472 0.2604624578178483 0.5998435254328187 0
473 0.7604982215918261 0.6640280146373778 0
474 0.4674155080017683 0.251755918172709 0
475 0.5613264960270046 0.2599079863147248 0
476 0.3168260759073413 0.2846755130153205 0
477 0.3499557429580046 0.7068090583804242 0
478 0.7370982519496742 0.3652569124942882 0
479 0.6105720067357217 0.3079641632496801 0
480 0.2886653851856734 0.2311751324959035 0
481 0.2517577461266542 0.46958718052976 0
482 0.2843873617776502 0.3066223238689385 0
483 0.2345780405832336 0.6532617707575386 0
484 0.4206209385826158 0.2481891897741596 0
485 0.6216498177566717 0.7580124237161792 0
486 0.7505449783717801 0.5812923351550681 0
487 0.2547077027703953 0.5145413507044992 0
488 0.7433918570467603 0.4940381983062733 0
489 0.7384850889515781 0.4066994139976047 0
490 0.2469491444167406 0.3788667445618171 0
491 0.4443382142144598 0.7450501568743273 0
492 0.7369016141300698 0.773384846958478 0
493 0.2620656218525385 0.2262831227864969 0
494 0.2684308902599838 0.712771234058321 0
495 0.771057089955715 0.7396153236666102 0
496 0.6979106844021951 0.319243256115 0
497 0.2945486236668435 0.4699680654819279 0
498 0.7038618094026877 0.5368986570791494 0
499 0.4227772849994499 0.2910979441470146 0
500 0.5652004101027249 0.3029218712670433 0
501 0.7127296424887462 0.6251033239565911 0
502 0.2785399669896517 0.6737511027675716 0
503 0.2918810941752574 0.4241233913429521 0
504 0.3732919890358454 0.2878157325346832 0
505 0.5786443242066849 0.7537814740258026 0
506 0.5143793352883544 0.2556265606013505 0
507 0.4408495288941129 0.7022002936879106 0
508 0.7407499465332607 0.4499666758610977 0
509 0.4892217591868596 0.7471597345245578 0
510 0.696716963219579 0.3614046414386771 0
511 0.6616013522321752 0.7630704729671602 0
512 0.3947784956252817 0.7023872806160308 0
513 0.286979776589125 0.3365282664107365 0
514 0.3067669201089731 0.6830602354988301 0
515 0.2575722468725262 0.5583138073206373 0
516 0.7661184892287909 0.7022229510303287 0
517 0.6545006868020338 0.3133686036909806 0
518 0.2741543423803814 0.2640849584046352 0
519 0.7337367881198763 0.7368201930372332 0
520 0.2638184677081863 0.6292522763289645 0
521 0.4382533436911054 0.6584382563894119 0
522 0.3349928598186178 0.4237490852599514 0
523 0.5775479405653697 0.7114306629650933 0
524 0.6630282462560257 0.7230886349646168 0
525 0.2994110078985693 0.601102239801142 0
526 0.5678926671037081 0.3462579915764768 0
527 0.65467476593223 0.3563686767837168 0
528 0.3287018400796338 0.3337419306298295 0
529 0.7201469601550498 0.666348527100316 0
530 0.7078209654748665 0.581148808680341 0
531 0.3359228096590692 0.6585938055037583 0
532 0.7007251313415177 0.4921564781088615 0
533 0.2894936099219592 0.3790448363028232 0
534 0.6969675481794642 0.4039901699843452 0
535 0.4710867205878965 0.294658700028994 0
536 0.5322266903381409 0.7077779958556099 0
537 0.4866424159728991 0.7046462046715712 0
538 0.2973753684374815 0.5149855411692328 0
539 0.2918199761054771 0.6389557604882516 0
540 0.7285790805735206 0.7025846955463465 0
541 0.6991860680075844 0.7316338217256524 0
542 0.5184580517352237 0.2986318969876551 0
543 0.660605097267873 0.5349752143199881 0
544 0.5769895920226675 0.6683656337261014 0
545 0.6683857457386495 0.626883521203199 0
546 0.4849335449863804 0.6615452935179561 0
547 0.3422169554200348 0.6062437787279075 0
548 0.6550878538646827 0.3996697153844423 0
549 0.5214805985141598 0.3428090048380775 0
550 0.6220237925484458 0.71603539513926 0
551 0.3376954604287964 0.4696173832773723 0
552 0.6984737730582246 0.4476009231316309 0
553 0.3905695568446311 0.6570251282061252 0
554 0.2994158796869563 0.5589661974128852 0
555 0.4240987943991654 0.335556377769689 0
556 0.6116570747024663 0.3512277252028909 0
557 0.3325929650587872 0.37831313487235 0
558 0.4728937531187472 0.3398901707194725 0
559 0.3751601235183693 0.3330427697243301 0
560 0.7022063650682429 0.7055253914773832 0
561 0.5243384752659122 0.3882765851919422 0
562 0.3781636928617239 0.4226816623784919 0
563 0.3896754798684281 0.609260441397258 0
564 0.6561519378718882 0.4438456802861396 0
565 0.4221321502988695 0.3804029691077072 0
566 0.3769626475595931 0.3782973886080556 0
567 0.6232572952039085 0.6721297172144372 0
568 0.6579771549204679 0.4890328030331964 0
569 0.4385302063328946 0.612110090737308 0
570 0.5311523447397137 0.6649878297487207 0
571 0.6640219114131815 0.5807313459189721 0
572 0.3406422898045549 0.5150737888744742 0
573 0.3427634971443101 0.5603335192590518 0
574 0.6757947962254877 0.6791764627405802 0
575 0.6126251421754578 0.3948036986043723 0
576 0.6154016735677997 0.5325935494030807 0
577 0.6135132373601188 0.4391875692002523 0
578 0.5761846966565551 0.6247643979103379 0
579 0.4859166487155467 0.6174930638755403 0
580 0.4448265421548155 0.5552507827238294 0
581 0.6221287705061846 0.6264863736501868 0
582 0.4713652105549566 0.3937748172491908 0
583 0.384872060836757 0.5127540286160432 0
584 0.3803951938323611 0.4671541272096723 0
585 0.5691500889105866 0.3905953252766085 0
586 0.3892298088419742 0.5598408012407744 0
587 0.4187731539056102 0.4221268443382089 0
588 0.6139727627665681 0.485120314516655 0
589 0.4928747864535913 0.5753043960428107 0
590 0.5623858994225044 0.5312623606484752 0
591 0.4888733452396335 0.4381943417696906 0
592 0.5696676581652703 0.4795807967476161 0
593 0.4199782254207948 0.4616675941775955 0
594 0.5314197626354437 0.6221563309967627 0
595 0.5278105765904825 0.4329014700519095 0
596 0.6183799980547057 0.5800227221036168 0
597 0.5702441739076178 0.4351075959614308 0
598 0.4273807558363981 0.5033151152533265 0
599 0.4799629151604954 0.5194568401329607 0
600 0.4952238407413758 0.4751067663786363 0
601 0.5734100084614473 0.5808972500272045 0
602 0.5226453726609896 0.5097619952426938 0
603 0.5292836949489603 0.4744726042289346 0
604 0.4472298803694356 0.423452947866257 0
605 0.5325200768453058 0.5815664416176918 0
606 0.4638636338790569 0.4877801641306371 0
607 0.4545813317272057 0.4512180159369692 0
608 0.5076365251067945 0.5404935967877785 0
609 0.4993325720710058 0.5010898762033373 0
610 0.5326411042210054 0.5526078344428071 0
$EndNodes
$Elements
657
1 1 2 1 1 1 5
2 1 2 1 1 5 6
3 1 2 1 1 6 7
4 1 2 1 1 7 8
5 1 2 1 1 8 9
6 1 2 1 1 9 10
7 1 2 1 1 10 11
8 1 2 1 1 11 12
9 1 2 1 1 12 13
10 1 2 1 1 13 14
11 1 2 1 1 14 15
12 1 2 1 1 15 16
13 1 2 1 1 16 17
14 1 2 1 1 17 18
15 1 2 1 1 18 19
16 1 2 1 1 19 20
17 1 2 1 1 20 21
18 1 2 1 1 21 22
19 1 2 1 1 22 23
20 1 2 1 1 23 24
21 1 2 1 1 24 25
22 1 2 1 1 25 26
23 1 2 1 1 26 27
24 1 2 1 1 27 2
25 1 2 2 2 2 28
26 1 2 2 2 28 29
27 1 2 2 2 29 30
28 1 2 2 2 30 31
29 1 2 2 2 31 32
30 1 2 2 2 32 33
31 1 2 2 2 33 34
32 1 2 2 2 34 35
33 1 2 2 2 35 36
34 1 2 2 2 36 37
35 1 2 2 2 37 38
36 1 2 2 2 38 39
37 1 2 2 2 39 40
38 1 2 2 2 40 41
39 1 2 2 2 41 42
40 1 2 2 2 42 43
41 1 2 2 2 43 44
42 1 2 2 2 44 45
43 1 2 2 2 45 46
44 1 2 2 2 46 47
45 1 2 2 2 47 48
46 1 2 2 2 48 49
47 1 2 2 2 49 50
48 1 2 2 2 50 3
49 1 2 3 3 3 51
50 1 2 3 3 51 52
51 1 2 3 3 52 53
52 1 2 3 3 53 54
53 1 2 3 3 54 55
54 1 2 3 3 55 56
55 1 2 3 3 56 57
56 1 2 3 3 57 58
57 1 2 3 3 58 59
58 1 2 3 3 59 60
59 1 2 3 3 60 61
60 1 2 3 3 61 62
61 1 2 3 3 62 63
62 1 2 3 3 63 64
63 1 2 3 3 64 65
64 1 2 3 3 65 66
65 1 2 3 3 66 67
66 1 2 3 3 67 68
67 1 2 3 3 68 69
68 1 2 3 3 69 70
69 1 2 3 3 70 71
70 1 2 3 3 71 72
71 1 2 3 3 72 73
72 1 2 3 3 73 4
73 1 2 4 4 4 74
74 1 2 4 4 74 75
75 1 2 4 4 75 76
76 1 2 4 4 76 77
77 1 2 4 4 77 78
78 1 2 4 4 78 79
79 1 2 4 4 79 80
80 1 2 4 4 80 81
81 1 2 4 4 81 82
82 1 2 4 4 82 83
83 1 2 4 4 83 84
84 1 2 4 4 84 85
85 1 2 4 4 85 86
86 1 2 4 4 86 87
87 1 2 4 4 87 88
88 1 2 4 4 88 89
89 1 2 4 4 89 90
90 1 2 4 4 90 91
91 1 2 4 4 91 92
92 1 2 4 4 92 93
93 1 2 4 4 93 94
94 1 2 4 4 94 95
95 1 2 4 4 95 96
96 1 2 4 4 96 1
97 3 2 5 1 439 503 497 481
98 3 2 5 1 587 604 607 593
99 3 2 5 1 605 610 590 601
100 3 2 5 1 455 447 436 409
101 3 2 5 1 409 436 381 340
102 3 2 5 1 447 441 406 436
103 3 2 5 1 352 353 383 420
104 3 2 5 1 539 502 483 520
105 3 2 5 1 536 537 546 570
106 3 2 5 1 567 574 524 550
107 3 2 5 1 518 480 440 476
108 3 2 5 1 576 590 592 588
109 3 2 5 1 535 542 549 558
110 3 2 5 1 448 418 374 417
111 3 2 5 1 414 382 306 338
112 3 2 5 1 450 403 469 505
113 3 2 5 1 590 602 603 592
114 3 2 5 1 287 401 374 341
115 3 2 5 1 310 384 422 348
116 3 2 5 1 558 549 561 582
117 3 2 5 1 500 542 506 475
118 3 2 5 1 159 214 156 131
119 3 2 5 1 589 605 594 579
120 3 2 5 1 570 546 579 594
121 3 2 5 1 401 373 405 468
122 3 2 5 1 375 435 400 342
123 3 2 5 1 400 250 311 342
124 3 2 5 1 422 384 453 442
125 3 2 5 1 528 557 533 513
126 3 2 5 1 213 218 206 250
127 3 2 5 1 454 389 346 421
128 3 2 5 1 204 303 311 254
129 3 2 5 1 596 571 545 581
130 3 2 5 1 300 309 302 337
131 3 2 5 1 568 588 577 564
132 3 2 5 1 581 567 544 578
133 3 2 5 1 349 312 388 373
134 3 2 5 1 455 496 517 447
135 3 2 5 1 343 256 199 288
136 3 2 5 1 218 158 110 206
137 3 2 5 1 205 302 309 251
138 3 2 5 1 341 255 198 287
139 3 2 5 1 347 344 290 385
140 3 2 5 1 350 423 411 390
141 3 2 5 1 384 310 241 329
142 3 2 5 1 348 257 221 310
143 3 2 5 1 444 501 530 486
144 3 2 5 1 376 433 364 363
145 3 2 5 1 349 258 217 312
146 3 2 5 1 476 528 513 482
147 3 2 5 1 531 514 502 539
148 3 2 5 1 587 593 584 562
149 3 2 5 1 503 522 551 497
150 3 2 5 1 605 601 578 594
151 3 2 5 1 214 159 112 251
152 3 2 5 1 254 162 127 204
153 3 2 5 1 522 503 533 557
154 3 2 5 1 256 164 101 199
155 3 2 5 1 581 578 601 596
156 3 2 5 1 528 476 504 559
157 3 2 5 1 580 586 583 598
158 3 2 5 1 119 157 72 73
159 3 2 5 1 548 534 552 564
160 3 2 5 1 575 548 564 577
161 3 2 5 1 586 563 547 573
162 3 2 5 1 389 313 260 346
163 3 2 5 1 598 593 607 606
164 3 2 5 1 580 598 606 599
165 3 2 5 1 567 581 545 574
166 3 2 5 1 310 221 148 241
167 3 2 5 1 501 545 571 530
168 3 2 5 1 424 355 399 408
169 3 2 5 1 257 168 120 221
170 3 2 5 1 156 154 132 115
171 3 2 5 1 602 609 600 603
172 3 2 5 1 590 576 596 601
173 3 2 5 1 115 126 131 156
174 3 2 5 1 197 259 170 129
175 3 2 5 1 580 589 579 569
176 3 2 5 1 340 351 380 409
177 3 2 5 1 305 291 351 340
178 3 2 5 1 207 261 171 130
179 3 2 5 1 418 455 409 380
180 3 2 5 1 28 126 27 2
181 3 2 5 1 126 115 26 27
182 3 2 5 1 158 75 76 110
183 3 2 5 1 159 30 31 112
184 3 2 5 1 162 77 78 127
185 3 2 5 1 163 32 33 128
186 3 2 5 1 164 79 80 101
187 3 2 5 1 165 34 35 103
188 3 2 5 1 121 222 217 169
189 3 2 5 1 312 217 222 240
190 3 2 5 1 339 425 412 391
191 3 2 5 1 218 213 118 157
192 3 2 5 1 160 132 154 215
193 3 2 5 1 161 133 152 216
194 3 2 5 1 380 337 374 418
195 3 2 5 1 128 255 205 163
196 3 2 5 1 168 81 82 120
197 3 2 5 1 169 36 37 121
198 3 2 5 1 566 562 522 557
199 3 2 5 1 385 290 355 424
200 3 2 5 1 250 304 152 213
201 3 2 5 1 309 300 269 270
202 3 2 5 1 586 573 572 583
203 3 2 5 1 252 215 269 291
204 3 2 5 1 573 547 525 554
205 3 2 5 1 232 185 143 151
206 3 2 5 1 337 380 351 300
207 3 2 5 1 73 4 74 119
208 3 2 5 1 140 192 95 96
209 3 2 5 1 390 314 262 350
210 3 2 5 1 343 432 375 303
211 3 2 5 1 468 478 448 417
212 3 2 5 1 441 447 517 479
213 3 2 5 1 75 158 119 74
214 3 2 5 1 103 258 198 165
215 3 2 5 1 397 336 246 322
216 3 2 5 1 215 252 105 160
217 3 2 5 1 253 216 249 292
218 3 2 5 1 251 112 163 205
219 3 2 5 1 337 302 341 374
220 3 2 5 1 435 416 365 400
221 3 2 5 1 598 583 584 593
222 3 2 5 1 204 127 164 256
223 3 2 5 1 172 98 225 194
224 3 2 5 1 255 128 165 198
225 3 2 5 1 251 309 270 214
226 3 2 5 1 216 253 107 161
227 3 2 5 1 157 119 158 218
228 3 2 5 1 347 385 415 397
229 3 2 5 1 441 475 461 406
230 3 2 5 1 106 279 211 183
231 3 2 5 1 219 197 129 166
232 3 2 5 1 47 113 188 46
233 3 2 5 1 49 139 189 48
234 3 2 5 1 93 114 190 92
235 3 2 5 1 42 124 180 41
236 3 2 5 1 87 125 181 86
237 3 2 5 1 131 126 28 29
238 3 2 5 1 132 25 26 115
239 3 2 5 1 133 70 71 118
240 3 2 5 1 160 24 25 132
241 3 2 5 1 161 69 70 133
242 3 2 5 1 166 22 23 105
243 3 2 5 1 167 67 68 107
244 3 2 5 1 90 106 183 89
245 3 2 5 1 45 108 182 44
246 3 2 5 1 221 120 137 148
247 3 2 5 1 291 305 219 252
248 3 2 5 1 173 97 195 263
249 3 2 5 1 277 196 247 299
250 3 2 5 1 261 207 243 308
251 3 2 5 1 338 249 304 365
252 3 2 5 1 302 205 255 341
253 3 2 5 1 220 207 130 167
254 3 2 5 1 340 381 245 305
255 3 2 5 1 479 500 475 441
256 3 2 5 1 170 20 21 129
257 3 2 5 1 477 438 371 456
258 3 2 5 1 585 526 556 575
259 3 2 5 1 244 274 149 211
260 3 2 5 1 171 65 66 130
261 3 2 5 1 292 306 220 253
262 3 2 5 1 30 159 131 29
263 3 2 5 1 483 442 472 520
264 3 2 5 1 77 162 110 76
265 3 2 5 1 32 163 112 31
266 3 2 5 1 79 164 127 78
267 3 2 5 1 34 165 128 33
268 3 2 5 1 15 16 174 135
269 3 2 5 1 322 246 150 238
270 3 2 5 1 60 61 175 134
271 3 2 5 1 85 99 176 84
272 3 2 5 1 510 496 448 478
273 3 2 5 1 40 100 177 39
274 3 2 5 1 199 101 168 257
275 3 2 5 1 259 197 245 307
276 3 2 5 1 486 530 498 437
277 3 2 5 1 137 120 82 83
278 3 2 5 1 138 121 37 38
279 3 2 5 1 353 352 194 225
280 3 2 5 1 133 118 213 152
281 3 2 5 1 449 414 438 471
282 3 2 5 1 456 494 502 514
283 3 2 5 1 270 269 215 154
284 3 2 5 1 81 168 101 80
285 3 2 5 1 36 169 103 35
286 3 2 5 1 564 552 532 568
287 3 2 5 1 224 176 99 208
288 3 2 5 1 172 18 19 98
289 3 2 5 1 173 63 64 97
290 3 2 5 1 223 265 175 123
291 3 2 5 1 436 406 332 381
292 3 2 5 1 471 438 477 512
293 3 2 5 1 367 347 282 301
294 3 2 5 1 435 375 432 443
295 3 2 5 1 162 254 206 110
296 3 2 5 1 67 167 130 66
297 3 2 5 1 22 166 129 21
298 3 2 5 1 258 103 169 217
299 3 2 5 1 250 400 365 304
300 3 2 5 1 216 152 304 249
301 3 2 5 1 156 214 270 154
302 3 2 5 1 580 599 608 589
303 3 2 5 1 72 157 118 71
304 3 2 5 1 24 160 105 23
305 3 2 5 1 69 161 107 68
306 3 2 5 1 463 413 491 509
307 3 2 5 1 414 449 333 382
308 3 2 5 1 13 14 178 102
309 3 2 5 1 308 345 195 261
310 3 2 5 1 58 59 179 104
311 3 2 5 1 338 371 438 414
312 3 2 5 1 174 16 17 122
313 3 2 5 1 552 534 489 508
314 3 2 5 1 175 61 62 123
315 3 2 5 1 431 379 419 445
316 3 2 5 1 20 170 98 19
317 3 2 5 1 397 415 427 336
318 3 2 5 1 65 171 97 64
319 3 2 5 1 420 383 461 451
320 3 2 5 1 208 266 294 260
321 3 2 5 1 313 224 208 260
322 3 2 5 1 505 469 536 523
323 3 2 5 1 338 365 416 371
324 3 2 5 1 227 177 100 209
325 3 2 5 1 425 457 490 412
326 3 2 5 1 11 12 184 136
327 3 2 5 1 55 56 185 111
328 3 2 5 1 9 10 186 109
329 3 2 5 1 53 54 187 116
330 3 2 5 1 7 8 191 117
331 3 2 5 1 148 137 176 224
332 3 2 5 1 306 292 249 338
333 3 2 5 1 248 324 278 232
334 3 2 5 1 18 172 122 17
335 3 2 5 1 460 388 328 426
336 3 2 5 1 374 401 468 417
337 3 2 5 1 63 173 123 62
338 3 2 5 1 242 297 271 210
339 3 2 5 1 177 227 147 138
340 3 2 5 1 433 286 244 364
341 3 2 5 1 98 170 259 225
342 3 2 5 1 178 14 15 135
343 3 2 5 1 179 59 60 134
344 3 2 5 1 418 448 496 455
345 3 2 5 1 303 204 256 343
346 3 2 5 1 334 377 428 369
347 3 2 5 1 147 314 240 222
348 3 2 5 1 371 416 494 456
349 3 2 5 1 386 387 315 345
350 3 2 5 1 311 303 375 342
351 3 2 5 1 411 437 488 426
352 3 2 5 1 243 306 382 333
353 3 2 5 1 423 486 437 411
354 3 2 5 1 476 482 458 518
355 3 2 5 1 542 500 526 549
356 3 2 5 1 426 328 390 411
357 3 2 5 1 166 105 252 219
358 3 2 5 1 405 460 508 489
359 3 2 5 1 330 394 297 242
360 3 2 5 1 461 383 332 406
361 3 2 5 1 479 517 527 556
362 3 2 5 1 373 388 460 405
363 3 2 5 1 537 536 469 509
364 3 2 5 1 531 477 456 514
365 3 2 5 1 307 332 383 353
366 3 2 5 1 241 148 224 313
367 3 2 5 1 563 569 521 553
368 3 2 5 1 315 295 223 263
369 3 2 5 1 582 561 595 591
370 3 2 5 1 314 147 227 262
371 3 2 5 1 141 182 238 150
372 3 2 5 1 142 183 211 149
373 3 2 5 1 483 372 422 442
374 3 2 5 1 552 508 488 532
375 3 2 5 1 513 457 458 482
376 3 2 5 1 141 124 42 43
377 3 2 5 1 142 125 87 88
378 3 2 5 1 404 487 515 453
379 3 2 5 1 83 84 176 137
380 3 2 5 1 320 356 377 334
381 3 2 5 1 194 264 122 172
382 3 2 5 1 588 568 543 576
383 3 2 5 1 38 39 177 138
384 3 2 5 1 573 554 538 572
385 3 2 5 1 597 595 561 585
386 3 2 5 1 143 57 58 104
387 3 2 5 1 184 12 13 102
388 3 2 5 1 185 56 57 143
389 3 2 5 1 186 10 11 136
390 3 2 5 1 554 525 472 515
391 3 2 5 1 187 54 55 111
392 3 2 5 1 144 106 90 91
393 3 2 5 1 191 8 9 109
394 3 2 5 1 145 114 93 94
395 3 2 5 1 155 6 7 117
396 3 2 5 1 608 602 590 610
397 3 2 5 1 233 272 301 282
398 3 2 5 1 473 428 464 516
399 3 2 5 1 579 546 521 569
400 3 2 5 1 153 145 192 237
401 3 2 5 1 588 592 597 577
402 3 2 5 1 40 41 180 100
403 3 2 5 1 85 86 181 99
404 3 2 5 1 207 220 306 243
405 3 2 5 1 451 452 392 420
406 3 2 5 1 508 460 426 488
407 3 2 5 1 498 543 568 532
408 3 2 5 1 569 563 586 580
409 3 2 5 1 307 245 381 332
410 3 2 5 1 43 44 182 141
411 3 2 5 1 88 89 183 142
412 3 2 5 1 45 46 188 108
413 3 2 5 1 47 48 189 113
414 3 2 5 1 91 92 190 144
415 3 2 5 1 94 95 192 145
416 3 2 5 1 421 346 391 412
417 3 2 5 1 522 562 584 551
418 3 2 5 1 549 526 585 561
419 3 2 5 1 553 521 507 512
420 3 2 5 1 197 219 305 245
421 3 2 5 1 550 523 544 567
422 3 2 5 1 471 491 413 449
423 3 2 5 1 368 410 394 330
424 3 2 5 1 226 210 135 174
425 3 2 5 1 500 479 556 526
426 3 2 5 1 421 412 490 439
427 3 2 5 1 542 535 474 506
428 3 2 5 1 532 488 437 498
429 3 2 5 1 487 404 454 481
430 3 2 5 1 329 404 453 384
431 3 2 5 1 594 578 544 570
432 3 2 5 1 486 423 369 444
433 3 2 5 1 555 558 582 565
434 3 2 5 1 266 181 125 229
435 3 2 5 1 474 484 429 452
436 3 2 5 1 263 195 345 315
437 3 2 5 1 504 499 555 559
438 3 2 5 1 583 572 551 584
439 3 2 5 1 484 474 535 499
440 3 2 5 1 452 451 506 474
441 3 2 5 1 368 429 484 459
442 3 2 5 1 509 469 403 463
443 3 2 5 1 533 490 457 513
444 3 2 5 1 376 430 467 433
445 3 2 5 1 459 440 410 368
446 3 2 5 1 167 107 253 220
447 3 2 5 1 240 328 388 312
448 3 2 5 1 264 194 352 293
449 3 2 5 1 587 565 582 604
450 3 2 5 1 531 553 512 477
451 3 2 5 1 354 330 242 316
452 3 2 5 1 440 459 504 476
453 3 2 5 1 499 504 459 484
454 3 2 5 1 558 555 499 535
455 3 2 5 1 293 352 420 392
456 3 2 5 1 481 497 538 487
457 3 2 5 1 603 600 591 595
458 3 2 5 1 330 354 429 368
459 3 2 5 1 570 544 523 536
460 3 2 5 1 533 503 439 490
461 3 2 5 1 334 369 423 350
462 3 2 5 1 356 267 228 319
463 3 2 5 1 293 316 226 264
464 3 2 5 1 346 260 294 391
465 3 2 5 1 267 180 124 228
466 3 2 5 1 395 359 286 370
467 3 2 5 1 316 293 392 354
468 3 2 5 1 507 521 546 537
469 3 2 5 1 387 386 463 403
470 3 2 5 1 97 171 261 195
471 3 2 5 1 452 429 354 392
472 3 2 5 1 379 331 450 419
473 3 2 5 1 539 520 472 525
474 3 2 5 1 350 262 320 334
475 3 2 5 1 295 315 387 331
476 3 2 5 1 473 444 369 428
477 3 2 5 1 419 450 505 485
478 3 2 5 1 391 294 318 339
479 3 2 5 1 550 524 511 485
480 3 2 5 1 574 545 501 529
481 3 2 5 1 523 550 485 505
482 3 2 5 1 553 531 547 563
483 3 2 5 1 478 468 405 489
484 3 2 5 1 518 458 395 407
485 3 2 5 1 529 501 444 473
486 3 2 5 1 174 122 264 226
487 3 2 5 1 210 226 316 242
488 3 2 5 1 442 453 515 472
489 3 2 5 1 319 228 150 246
490 3 2 5 1 266 208 99 181
491 3 2 5 1 123 173 263 223
492 3 2 5 1 554 515 487 538
493 3 2 5 1 268 248 232 151
494 3 2 5 1 572 538 497 551
495 3 2 5 1 425 339 359 395
496 3 2 5 1 138 147 222 121
497 3 2 5 1 247 323 362 335
498 3 2 5 1 273 190 114 234
499 3 2 5 1 228 124 141 150
500 3 2 5 1 229 125 142 149
501 3 2 5 1 149 274 318 229
502 3 2 5 1 491 471 512 507
503 3 2 5 1 189 203 188 113
504 3 2 5 1 449 413 396 333
505 3 2 5 1 201 265 357 285
506 3 2 5 1 231 212 116 187
507 3 2 5 1 235 196 186 136
508 3 2 5 1 234 114 145 153
509 3 2 5 1 403 450 331 387
510 3 2 5 1 475 506 451 461
511 3 2 5 1 290 344 324 248
512 3 2 5 1 134 175 265 201
513 3 2 5 1 401 287 349 373
514 3 2 5 1 358 273 234 321
515 3 2 5 1 244 286 359 274
516 3 2 5 1 424 408 492 466
517 3 2 5 1 96 1 5 140
518 3 2 5 1 275 202 360 296
519 3 2 5 1 345 308 396 386
520 3 2 5 1 321 234 153 283
521 3 2 5 1 457 425 395 458
522 3 2 5 1 246 336 398 319
523 3 2 5 1 467 407 395 370
524 3 2 5 1 599 606 600 609
525 3 2 5 1 225 259 307 353
526 3 2 5 1 102 178 271 202
527 3 2 5 1 509 491 507 537
528 3 2 5 1 201 276 179 134
529 3 2 5 1 151 230 317 268
530 3 2 5 1 445 462 378 431
531 3 2 5 1 143 104 230 151
532 3 2 5 1 379 431 285 357
533 3 2 5 1 248 268 355 290
534 3 2 5 1 210 271 178 135
535 3 2 5 1 396 413 463 386
536 3 2 5 1 196 235 323 247
537 3 2 5 1 339 318 274 359
538 3 2 5 1 543 498 530 571
539 3 2 5 1 434 393 296 360
540 3 2 5 1 443 432 372 483
541 3 2 5 1 267 209 100 180
542 3 2 5 1 244 211 279 325
543 3 2 5 1 410 446 434 394
544 3 2 5 1 524 541 470 511
545 3 2 5 1 393 465 467 430
546 3 2 5 1 443 494 416 435
547 3 2 5 1 511 470 462 445
548 3 2 5 1 288 372 432 343
549 3 2 5 1 597 585 575 577
550 3 2 5 1 295 357 265 223
551 3 2 5 1 397 322 282 347
552 3 2 5 1 331 379 357 295
553 3 2 5 1 136 184 275 235
554 3 2 5 1 51 52 193 146
555 3 2 5 1 314 390 328 240
556 3 2 5 1 51 146 50 3
557 3 2 5 1 431 378 361 285
558 3 2 5 1 485 511 445 419
559 3 2 5 1 297 360 202 271
560 3 2 5 1 322 238 233 282
561 3 2 5 1 187 111 278 231
562 3 2 5 1 191 109 277 236
563 3 2 5 1 212 231 298 284
564 3 2 5 1 529 473 516 540
565 3 2 5 1 576 543 571 596
566 3 2 5 1 470 492 408 462
567 3 2 5 1 294 266 229 318
568 3 2 5 1 393 362 323 296
569 3 2 5 1 607 604 582 591
570 3 2 5 1 466 415 385 424
571 3 2 5 1 465 493 407 467
572 3 2 5 1 356 320 209 267
573 3 2 5 1 376 362 393 430
574 3 2 5 1 361 317 230 276
575 3 2 5 1 336 427 464 398
576 3 2 5 1 402 335 362 376
577 3 2 5 1 358 289 200 273
578 3 2 5 1 378 399 317 361
579 3 2 5 1 399 355 268 317
580 3 2 5 1 53 116 193 52
581 3 2 5 1 49 50 146 139
582 3 2 5 1 272 233 108 188
583 3 2 5 1 276 230 104 179
584 3 2 5 1 273 200 144 190
585 3 2 5 1 377 356 319 398
586 3 2 5 1 286 433 467 370
587 3 2 5 1 285 361 276 201
588 3 2 5 1 296 323 235 275
589 3 2 5 1 258 349 287 198
590 3 2 5 1 394 434 360 297
591 3 2 5 1 257 348 288 199
592 3 2 5 1 202 275 184 102
593 3 2 5 1 393 434 446 465
594 3 2 5 1 155 117 280 237
595 3 2 5 1 238 182 108 233
596 3 2 5 1 566 557 528 559
597 3 2 5 1 313 389 329 241
598 3 2 5 1 189 281 284 203
599 3 2 5 1 279 106 144 200
600 3 2 5 1 415 466 495 427
601 3 2 5 1 556 527 548 575
602 3 2 5 1 232 278 111 185
603 3 2 5 1 196 277 109 186
604 3 2 5 1 239 139 146 193
605 3 2 5 1 281 189 139 239
606 3 2 5 1 324 298 231 278
607 3 2 5 1 510 478 489 534
608 3 2 5 1 262 227 209 320
609 3 2 5 1 236 280 117 191
610 3 2 5 1 462 408 399 378
611 3 2 5 1 299 326 236 277
612 3 2 5 1 358 363 325 289
613 3 2 5 1 212 239 193 116
614 3 2 5 1 140 155 237 192
615 3 2 5 1 466 492 519 495
616 3 2 5 1 541 519 492 470
617 3 2 5 1 531 539 525 547
618 3 2 5 1 516 464 427 495
619 3 2 5 1 283 153 237 280
620 3 2 5 1 540 516 495 519
621 3 2 5 1 483 502 494 443
622 3 2 5 1 534 548 527 510
623 3 2 5 1 347 367 324 344
624 3 2 5 1 325 279 200 289
625 3 2 5 1 335 402 299 247
626 3 2 5 1 327 298 324 367
627 3 2 5 1 272 327 367 301
628 3 2 5 1 402 366 326 299
629 3 2 5 1 244 325 363 364
630 3 2 5 1 440 480 446 410
631 3 2 5 1 300 351 291 269
632 3 2 5 1 404 329 389 454
633 3 2 5 1 602 608 599 609
634 3 2 5 1 589 608 610 605
635 3 2 5 1 188 203 327 272
636 3 2 5 1 250 206 254 311
637 3 2 5 1 298 327 203 284
638 3 2 5 1 333 396 308 243
639 3 2 5 1 6 155 140 5
640 3 2 5 1 366 321 283 326
641 3 2 5 1 372 288 348 422
642 3 2 5 1 428 377 398 464
643 3 2 5 1 510 527 517 496
644 3 2 5 1 465 446 480 493
645 3 2 5 1 519 541 560 540
646 3 2 5 1 574 529 540 560
647 3 2 5 1 595 597 592 603
648 3 2 5 1 284 281 239 212
649 3 2 5 1 326 283 280 236
650 3 2 5 1 407 493 480 518
651 3 2 5 1 591 600 606 607
652 3 2 5 1 574 560 541 524
653 3 2 5 1 321 366 363 358
654 3 2 5 1 376 363 366 402
655 3 2 5 1 454 421 439 481
656 3 2 5 1 559 555 565 566
657 3 2 5 1 562 566 565 587
$EndElements
